#define b1bomberhoriz_width 11
#define b1bomberhoriz_height 19
static unsigned char b1bomberhoriz_bits[] = {
   0x00, 0x00, 0x00, 0x00, 0x00, 0x00, 0x0c, 0x00, 0x3c, 0x00, 0x38, 0x00,
   0x71, 0x00, 0xe3, 0x00, 0xff, 0x07, 0xff, 0x07, 0xe3, 0x00, 0x71, 0x00,
   0x38, 0x00, 0x3c, 0x00, 0x0c, 0x00, 0x00, 0x00, 0x00, 0x00, 0x00, 0x00,
   0x00, 0x00};
