#define lowerrightmiddle_width 11
#define lowerrightmiddle_height 19
static unsigned char lowerrightmiddle_bits[] = {
   0x00, 0x04, 0x00, 0x04, 0x00, 0x04, 0x00, 0x04, 0x00, 0x04, 0x00, 0x04,
   0x00, 0x04, 0x00, 0x04, 0x00, 0x04, 0x00, 0x04, 0xff, 0x07, 0x00, 0x00,
   0x00, 0x00, 0x00, 0x00, 0x00, 0x00, 0x00, 0x00, 0x00, 0x00, 0x00, 0x00,
   0x00, 0x00};
