#define upperrightmiddle_width 11
#define upperrightmiddle_height 19
static unsigned char upperrightmiddle_bits[] = {
   0x00, 0x00, 0x00, 0x00, 0x00, 0x00, 0x00, 0x00, 0x00, 0x00, 0x00, 0x00,
   0x00, 0x00, 0x00, 0x00, 0xff, 0x07, 0x00, 0x04, 0x00, 0x04, 0x00, 0x04,
   0x00, 0x04, 0x00, 0x04, 0x00, 0x04, 0x00, 0x04, 0x00, 0x04, 0x00, 0x04,
   0x00, 0x04};
