#define upperleftmiddle_width 11
#define upperleftmiddle_height 19
static unsigned char upperleftmiddle_bits[] = {
   0x00, 0x00, 0x00, 0x00, 0x00, 0x00, 0x00, 0x00, 0x00, 0x00, 0x00, 0x00,
   0x00, 0x00, 0x00, 0x00, 0xff, 0x07, 0x01, 0x00, 0x01, 0x00, 0x01, 0x00,
   0x01, 0x00, 0x01, 0x00, 0x01, 0x00, 0x01, 0x00, 0x01, 0x00, 0x01, 0x00,
   0x01, 0x00};
