#define b1bomberRt_width 11
#define b1bomberRt_height 19
static unsigned char b1bomberRt_bits[] = {
   0x00, 0x00, 0x00, 0x00, 0x00, 0x00, 0x00, 0x00, 0x00, 0x00, 0x01, 0x00,
   0x03, 0x00, 0x0f, 0x00, 0xff, 0x03, 0xff, 0x03, 0x0f, 0x00, 0x03, 0x00,
   0x01, 0x00, 0x00, 0x00, 0x00, 0x00, 0x00, 0x00, 0x00, 0x00, 0x00, 0x00,
   0x00, 0x00};
