#define b1bomberLt_width 11
#define b1bomberLt_height 19
static unsigned char b1bomberLt_bits[] = {
   0x00, 0x00, 0x18, 0x00, 0x38, 0x00, 0xf0, 0x00, 0xc0, 0x01, 0x80, 0x07,
   0x02, 0x07, 0x06, 0x04, 0xfe, 0x07, 0xfe, 0x07, 0x06, 0x04, 0x02, 0x07,
   0x80, 0x07, 0xc0, 0x01, 0xf0, 0x00, 0x38, 0x00, 0x18, 0x00, 0x00, 0x00,
   0x00, 0x00};
