#define diamond_width 11
#define diamond_height 19
static unsigned char diamond_bits[] = {
   0x00, 0x00, 0x00, 0x00, 0x30, 0x00, 0x78, 0x00, 0xfc, 0x00, 0xfc, 0x00,
   0xfe, 0x01, 0xff, 0x03, 0xff, 0x03, 0xff, 0x03, 0xff, 0x03, 0xfe, 0x01,
   0xfc, 0x00, 0x78, 0x00, 0x78, 0x00, 0x30, 0x00, 0x00, 0x00, 0x00, 0x00,
   0x00, 0x00};
