#define downarrow_width 11
#define downarrow_height 19
static unsigned char downarrow_bits[] = {
   0x00, 0x00, 0x30, 0x00, 0x30, 0x00, 0x30, 0x00, 0x30, 0x00, 0x30, 0x00,
   0x30, 0x00, 0x30, 0x00, 0x30, 0x00, 0x30, 0x00, 0x30, 0x00, 0x31, 0x02,
   0x33, 0x03, 0xb6, 0x01, 0xb6, 0x01, 0xfc, 0x00, 0x78, 0x00, 0x30, 0x00,
   0x00, 0x00};
