#define littlebox_width 11
#define littlebox_height 19
static unsigned char littlebox_bits[] = {
   0xff, 0x07, 0xff, 0x07, 0x03, 0x06, 0x03, 0x06, 0x03, 0x06, 0x03, 0x06,
   0x03, 0x06, 0x03, 0x06, 0x03, 0x06, 0x03, 0x06, 0x03, 0x06, 0x03, 0x06,
   0x03, 0x06, 0x03, 0x06, 0x03, 0x06, 0x03, 0x06, 0x03, 0x06, 0xff, 0x07,
   0xff, 0x07};
