#define lowerrightcorner_width 11
#define lowerrightcorner_height 19
static unsigned char lowerrightcorner_bits[] = {
   0x00, 0x06, 0x00, 0x06, 0x00, 0x06, 0x00, 0x06, 0x00, 0x06, 0x00, 0x06,
   0x00, 0x06, 0x00, 0x06, 0x00, 0x06, 0x00, 0x06, 0x00, 0x06, 0x00, 0x06,
   0x00, 0x06, 0x00, 0x06, 0x00, 0x06, 0x00, 0x06, 0x00, 0x06, 0xff, 0x07,
   0xff, 0x07};
