#define radar_width 11
#define radar_height 19
static unsigned char radar_bits[] = {
   0x00, 0x00, 0x00, 0x00, 0x03, 0x00, 0x0f, 0x00, 0x18, 0x00, 0x18, 0x00,
   0x30, 0x00, 0x60, 0x00, 0xe0, 0x03, 0xe0, 0x03, 0xe0, 0x03, 0x60, 0x03,
   0x30, 0x03, 0x18, 0x03, 0x18, 0x03, 0x0f, 0x03, 0x03, 0x03, 0x00, 0x03,
   0x00, 0x03};
