#define rightcbracket_width 11
#define rightcbracket_height 19
static unsigned char rightcbracket_bits[] = {
   0xff, 0x07, 0xff, 0x07, 0x00, 0x06, 0x00, 0x06, 0x00, 0x06, 0x00, 0x06,
   0x00, 0x06, 0x00, 0x06, 0x00, 0x06, 0x00, 0x06, 0x00, 0x06, 0x00, 0x06,
   0x00, 0x06, 0x00, 0x06, 0x00, 0x06, 0x00, 0x06, 0x00, 0x06, 0xff, 0x07,
   0xff, 0x07};
