#define stripe_width 11
#define stripe_height 19
static unsigned char stripe_bits[] = {
   0x07, 0x00, 0x19, 0x00, 0x31, 0x00, 0x66, 0x00, 0xcc, 0x00, 0xcc, 0x00,
   0x98, 0x01, 0x30, 0x03, 0x60, 0x06, 0xc0, 0x04, 0x60, 0x06, 0x30, 0x03,
   0x98, 0x01, 0xcc, 0x00, 0xcc, 0x00, 0x66, 0x00, 0x31, 0x00, 0x19, 0x00,
   0x07, 0x00};
