#define 5_width 11
#define 5_height 19
static unsigned char 5_bits[] = {
   0x00, 0x00, 0x00, 0x00, 0xfe, 0x01, 0x06, 0x00, 0x06, 0x00, 0x06, 0x00,
   0x06, 0x00, 0xfe, 0x00, 0xc0, 0x00, 0x80, 0x01, 0x80, 0x01, 0x80, 0x01,
   0x80, 0x01, 0xc2, 0x00, 0xfc, 0x00, 0x00, 0x00, 0x00, 0x00, 0x00, 0x00,
   0x00, 0x00};
