#define caret_width 11
#define caret_height 19
static unsigned char caret_bits[] = {
   0x00, 0x00, 0x00, 0x00, 0x30, 0x00, 0x78, 0x00, 0xcc, 0x00, 0xcc, 0x00,
   0x86, 0x01, 0x00, 0x00, 0x00, 0x00, 0x00, 0x00, 0x00, 0x00, 0x00, 0x00,
   0x00, 0x00, 0x00, 0x00, 0x00, 0x00, 0x00, 0x00, 0x00, 0x00, 0x00, 0x00,
   0x00, 0x00};
