#define degreesymbol_width 11
#define degreesymbol_height 19
static unsigned char degreesymbol_bits[] = {
   0x00, 0x00, 0x00, 0x00, 0x70, 0x00, 0xf8, 0x00, 0x8c, 0x01, 0x8c, 0x01,
   0x8c, 0x01, 0x8c, 0x01, 0xf8, 0x00, 0x70, 0x00, 0x00, 0x00, 0x00, 0x00,
   0x00, 0x00, 0x00, 0x00, 0x00, 0x00, 0x00, 0x00, 0x00, 0x00, 0x00, 0x00,
   0x00, 0x00};
