#define l_c_width 11
#define l_c_height 19
static unsigned char l_c_bits[] = {
   0x00, 0x00, 0x00, 0x00, 0x00, 0x00, 0x00, 0x00, 0x00, 0x00, 0x00, 0x00,
   0x00, 0x00, 0x00, 0x00, 0xfc, 0x00, 0x86, 0x01, 0x06, 0x00, 0x06, 0x00,
   0x06, 0x00, 0x86, 0x01, 0xfc, 0x00, 0x00, 0x00, 0x00, 0x00, 0x00, 0x00,
   0x00, 0x00};
