#define l_w_width 11
#define l_w_height 19
static unsigned char l_w_bits[] = {
   0x00, 0x00, 0x00, 0x00, 0x00, 0x00, 0x00, 0x00, 0x00, 0x00, 0x00, 0x00,
   0x00, 0x00, 0x00, 0x00, 0x86, 0x01, 0x86, 0x01, 0x86, 0x01, 0xb6, 0x01,
   0xfe, 0x01, 0xce, 0x01, 0x86, 0x01, 0x00, 0x00, 0x00, 0x00, 0x00, 0x00,
   0x00, 0x00};
