#define leftcurly_width 11
#define leftcurly_height 19
static unsigned char leftcurly_bits[] = {
   0x00, 0x00, 0xf0, 0x00, 0xf8, 0x00, 0x18, 0x00, 0x08, 0x00, 0x08, 0x00,
   0x0c, 0x00, 0x0c, 0x00, 0x0e, 0x00, 0x0f, 0x00, 0x0e, 0x00, 0x0c, 0x00,
   0x0c, 0x00, 0x08, 0x00, 0x08, 0x00, 0x18, 0x00, 0xf8, 0x00, 0xf0, 0x00,
   0x00, 0x00};
