#define poundsign_width 11
#define poundsign_height 19
static unsigned char poundsign_bits[] = {
   0x00, 0x00, 0x00, 0x00, 0x00, 0x00, 0xcc, 0x00, 0xcc, 0x00, 0xcc, 0x00,
   0xff, 0x03, 0xff, 0x03, 0xcc, 0x00, 0xcc, 0x00, 0xff, 0x03, 0xff, 0x03,
   0xcc, 0x00, 0xcc, 0x00, 0xcc, 0x00, 0x00, 0x00, 0x00, 0x00, 0x00, 0x00,
   0x00, 0x00};
