#define rightcurly_width 11
#define rightcurly_height 19
static unsigned char rightcurly_bits[] = {
   0x00, 0x00, 0x00, 0x00, 0x0c, 0x00, 0x3c, 0x00, 0x70, 0x00, 0x60, 0x00,
   0xc0, 0x00, 0xc0, 0x00, 0xc0, 0x00, 0xc0, 0x01, 0xc0, 0x03, 0xc0, 0x01,
   0xc0, 0x00, 0xc0, 0x00, 0xc0, 0x00, 0x60, 0x00, 0x70, 0x00, 0x3c, 0x00,
   0x0c, 0x00};
