#define rightbracket_width 11
#define rightbracket_height 19
static unsigned char rightbracket_bits[] = {
   0x00, 0x00, 0x00, 0x00, 0x78, 0x00, 0x78, 0x00, 0x60, 0x00, 0x60, 0x00,
   0x60, 0x00, 0x60, 0x00, 0x60, 0x00, 0x60, 0x00, 0x60, 0x00, 0x60, 0x00,
   0x60, 0x00, 0x60, 0x00, 0x60, 0x00, 0x78, 0x00, 0x78, 0x00, 0x00, 0x00,
   0x00, 0x00};
