#define star_width 11
#define star_height 19
static unsigned char star_bits[] = {
   0x00, 0x00, 0x00, 0x00, 0x00, 0x00, 0x00, 0x00, 0x00, 0x00, 0x00, 0x00,
   0x20, 0x00, 0xf8, 0x00, 0xfc, 0x01, 0x8c, 0x01, 0x8e, 0x03, 0x8c, 0x01,
   0x8c, 0x01, 0xf8, 0x00, 0xf8, 0x00, 0x20, 0x00, 0x00, 0x00, 0x00, 0x00,
   0x00, 0x00};
