#define C_width 11
#define C_height 19
static unsigned char C_bits[] = {
   0x00, 0x00, 0x00, 0x00, 0xfc, 0x00, 0xce, 0x01, 0x06, 0x00, 0x06, 0x00,
   0x06, 0x00, 0x06, 0x00, 0x06, 0x00, 0x06, 0x00, 0x06, 0x00, 0x06, 0x00,
   0x06, 0x00, 0xcc, 0x01, 0xfc, 0x00, 0x00, 0x00, 0x00, 0x00, 0x00, 0x00,
   0x00, 0x00};
