#define V_width 11
#define V_height 19
static unsigned char V_bits[] = {
   0x00, 0x00, 0x00, 0x00, 0x86, 0x01, 0x86, 0x01, 0x86, 0x01, 0x86, 0x01,
   0x86, 0x01, 0x86, 0x01, 0x86, 0x01, 0x86, 0x01, 0x84, 0x00, 0xcc, 0x00,
   0x48, 0x00, 0x48, 0x00, 0x30, 0x00, 0x00, 0x00, 0x00, 0x00, 0x00, 0x00,
   0x00, 0x00};
