#define Z_width 11
#define Z_height 19
static unsigned char Z_bits[] = {
   0x00, 0x00, 0x00, 0x00, 0xfe, 0x01, 0x80, 0x01, 0x80, 0x01, 0x80, 0x01,
   0xc0, 0x00, 0x60, 0x00, 0x30, 0x00, 0x18, 0x00, 0x0c, 0x00, 0x06, 0x00,
   0x06, 0x00, 0x06, 0x00, 0xfe, 0x01, 0x00, 0x00, 0x00, 0x00, 0x00, 0x00,
   0x00, 0x00};
