#define 3_width 11
#define 3_height 19
static unsigned char 3_bits[] = {
   0x00, 0x00, 0x00, 0x00, 0xfc, 0x00, 0xce, 0x01, 0x80, 0x01, 0x80, 0x01,
   0x80, 0x01, 0xc0, 0x01, 0xfc, 0x00, 0xc0, 0x01, 0x80, 0x01, 0x80, 0x01,
   0xc0, 0x01, 0xce, 0x00, 0xfc, 0x00, 0x00, 0x00, 0x00, 0x00, 0xff, 0x07,
   0x00, 0x00};
