#define 6_width 11
#define 6_height 19
static unsigned char 6_bits[] = {
   0x00, 0x00, 0x00, 0x00, 0xfc, 0x00, 0xce, 0x01, 0x06, 0x00, 0x06, 0x00,
   0x06, 0x00, 0x06, 0x00, 0xfe, 0x00, 0xc6, 0x01, 0x86, 0x01, 0x86, 0x01,
   0x86, 0x01, 0xce, 0x01, 0xfc, 0x00, 0x00, 0x00, 0x00, 0x00, 0xff, 0x07,
   0x00, 0x00};
