#define 8_width 11
#define 8_height 19
static unsigned char 8_bits[] = {
   0x00, 0x00, 0x00, 0x00, 0xfc, 0x00, 0xce, 0x01, 0x86, 0x01, 0x86, 0x01,
   0x86, 0x01, 0xce, 0x01, 0xfc, 0x00, 0xce, 0x01, 0x86, 0x01, 0x86, 0x01,
   0x86, 0x01, 0xce, 0x01, 0xfc, 0x00, 0x00, 0x00, 0x00, 0x00, 0xff, 0x07,
   0x00, 0x00};
