#define l_g_width 11
#define l_g_height 19
static unsigned char l_g_bits[] = {
   0x00, 0x00, 0x00, 0x00, 0x00, 0x00, 0x00, 0x00, 0x00, 0x00, 0x00, 0x00,
   0x00, 0x00, 0xfc, 0x00, 0x86, 0x01, 0x86, 0x01, 0x86, 0x01, 0xfc, 0x01,
   0x80, 0x01, 0x80, 0x01, 0x86, 0x01, 0xfc, 0x00, 0x00, 0x00, 0xff, 0x07,
   0x00, 0x00};
