#define l_k_width 11
#define l_k_height 19
static unsigned char l_k_bits[] = {
   0x00, 0x00, 0x00, 0x00, 0x00, 0x00, 0x00, 0x00, 0x0c, 0x00, 0x0c, 0x00,
   0x0c, 0x00, 0x0c, 0x00, 0x8c, 0x01, 0xcc, 0x00, 0x6c, 0x00, 0x3c, 0x00,
   0x7c, 0x00, 0xcc, 0x00, 0x8c, 0x01, 0x00, 0x00, 0x00, 0x00, 0xff, 0x07,
   0x00, 0x00};
