#define l_n_width 11
#define l_n_height 19
static unsigned char l_n_bits[] = {
   0x00, 0x00, 0x00, 0x00, 0x00, 0x00, 0x00, 0x00, 0x00, 0x00, 0x00, 0x00,
   0x00, 0x00, 0x00, 0x00, 0xfc, 0x00, 0x8c, 0x01, 0x8c, 0x01, 0x8c, 0x01,
   0x8c, 0x01, 0x8c, 0x01, 0x8c, 0x01, 0x00, 0x00, 0x00, 0x00, 0xff, 0x07,
   0x00, 0x00};
