#define l_o_width 11
#define l_o_height 19
static unsigned char l_o_bits[] = {
   0x00, 0x00, 0x00, 0x00, 0x00, 0x00, 0x00, 0x00, 0x00, 0x00, 0x00, 0x00,
   0x00, 0x00, 0x00, 0x00, 0xf8, 0x00, 0x8c, 0x01, 0x8c, 0x01, 0x8c, 0x01,
   0x8c, 0x01, 0x8c, 0x01, 0xf8, 0x00, 0x00, 0x00, 0x00, 0x00, 0xff, 0x07,
   0x00, 0x00};
