#define leftbracket_width 11
#define leftbracket_height 19
static unsigned char leftbracket_bits[] = {
   0x00, 0x00, 0x00, 0x00, 0x78, 0x00, 0x18, 0x00, 0x18, 0x00, 0x18, 0x00,
   0x18, 0x00, 0x18, 0x00, 0x18, 0x00, 0x18, 0x00, 0x18, 0x00, 0x18, 0x00,
   0x18, 0x00, 0x18, 0x00, 0x78, 0x00, 0x00, 0x00, 0x00, 0x00, 0xff, 0x07,
   0x00, 0x00};
