#define leftcurly_width 11
#define leftcurly_height 19
static unsigned char leftcurly_bits[] = {
   0x00, 0x00, 0x00, 0x00, 0xe0, 0x01, 0x30, 0x00, 0x30, 0x00, 0x30, 0x00,
   0x30, 0x00, 0x38, 0x00, 0x1e, 0x00, 0x38, 0x00, 0x30, 0x00, 0x30, 0x00,
   0x30, 0x00, 0x30, 0x00, 0xe0, 0x01, 0x00, 0x00, 0x00, 0x00, 0xff, 0x07,
   0x00, 0x00};
