#define star_width 11
#define star_height 19
static unsigned char star_bits[] = {
   0x00, 0x00, 0x00, 0x00, 0x00, 0x00, 0x00, 0x00, 0x32, 0x01, 0x32, 0x01,
   0xb4, 0x00, 0x78, 0x00, 0xfe, 0x01, 0x78, 0x00, 0xb4, 0x00, 0x32, 0x01,
   0x32, 0x01, 0x00, 0x00, 0x00, 0x00, 0x00, 0x00, 0x00, 0x00, 0xff, 0x07,
   0x00, 0x00};
