#define A_width 11
#define A_height 19
static unsigned char A_bits[] = {
   0x00, 0x00, 0x00, 0x00, 0x30, 0x00, 0x78, 0x00, 0xcc, 0x00, 0xcc, 0x00,
   0x86, 0x01, 0x86, 0x01, 0x86, 0x01, 0xfe, 0x01, 0x86, 0x01, 0x86, 0x01,
   0x86, 0x01, 0x86, 0x01, 0x86, 0x01, 0x00, 0x00, 0x00, 0x00, 0xff, 0x07,
   0x00, 0x00};
