#define K_width 11
#define K_height 19
static unsigned char K_bits[] = {
   0x00, 0x00, 0x00, 0x00, 0x86, 0x01, 0x86, 0x01, 0xc6, 0x00, 0x66, 0x00,
   0x36, 0x00, 0x1e, 0x00, 0x0e, 0x00, 0x1e, 0x00, 0x36, 0x00, 0x66, 0x00,
   0xc6, 0x00, 0x86, 0x01, 0x86, 0x01, 0x00, 0x00, 0x00, 0x00, 0xff, 0x07,
   0x00, 0x00};
