#define S_width 11
#define S_height 19
static unsigned char S_bits[] = {
   0x00, 0x00, 0x00, 0x00, 0xfc, 0x00, 0x8e, 0x01, 0x06, 0x00, 0x06, 0x00,
   0x06, 0x00, 0x0e, 0x00, 0xfc, 0x00, 0xc0, 0x01, 0x80, 0x01, 0x80, 0x01,
   0xc0, 0x01, 0xc6, 0x01, 0xfc, 0x00, 0x00, 0x00, 0x00, 0x00, 0xff, 0x07,
   0x00, 0x00};
