#define W_width 11
#define W_height 19
static unsigned char W_bits[] = {
   0x00, 0x00, 0x00, 0x00, 0x86, 0x01, 0x86, 0x01, 0x86, 0x01, 0x86, 0x01,
   0x86, 0x01, 0x86, 0x01, 0xb6, 0x01, 0xb6, 0x01, 0xfe, 0x01, 0xfe, 0x01,
   0xce, 0x01, 0x86, 0x01, 0x86, 0x01, 0x00, 0x00, 0x00, 0x00, 0xff, 0x07,
   0x00, 0x00};
