#define 2_width 11
#define 2_height 19
static unsigned char 2_bits[] = {
   0x00, 0x00, 0x00, 0x00, 0xfc, 0x01, 0x86, 0x03, 0x00, 0x03, 0x00, 0x03,
   0x80, 0x01, 0xc0, 0x00, 0x60, 0x00, 0x30, 0x00, 0x18, 0x00, 0x0c, 0x00,
   0x06, 0x00, 0x06, 0x00, 0xfe, 0x03, 0x00, 0x00, 0x00, 0x00, 0x00, 0x00,
   0x00, 0x00};
