#define 9_width 11
#define 9_height 19
static unsigned char 9_bits[] = {
   0x00, 0x00, 0x00, 0x00, 0xfc, 0x00, 0xce, 0x01, 0x86, 0x01, 0x86, 0x01,
   0x86, 0x01, 0xce, 0x01, 0xfc, 0x01, 0x80, 0x01, 0x80, 0x01, 0x80, 0x01,
   0x80, 0x01, 0xce, 0x00, 0xfc, 0x00, 0x00, 0x00, 0x00, 0x00, 0x00, 0x00,
   0x00, 0x00};
