#define andsign_width 11
#define andsign_height 19
static unsigned char andsign_bits[] = {
   0x00, 0x00, 0x00, 0x00, 0x38, 0x00, 0x6c, 0x00, 0x66, 0x00, 0x66, 0x00,
   0x66, 0x00, 0x66, 0x00, 0x34, 0x00, 0x1c, 0x00, 0xb6, 0x00, 0x66, 0x00,
   0xc6, 0x00, 0xa6, 0x01, 0xfc, 0x00, 0x00, 0x00, 0x00, 0x00, 0x00, 0x00,
   0x00, 0x00};
