#define ampersand_width 11
#define ampersand_height 19
static unsigned char ampersand_bits[] = {
   0x00, 0x00, 0x00, 0x00, 0x00, 0x00, 0x00, 0x00, 0x00, 0x00, 0x00, 0x00,
   0xfc, 0x00, 0x86, 0x01, 0x76, 0x01, 0x96, 0x01, 0xb6, 0x01, 0xe6, 0x01,
   0x06, 0x00, 0x06, 0x00, 0xf8, 0x01, 0x00, 0x00, 0x00, 0x00, 0x00, 0x00,
   0x00, 0x00};
