#define l_b_width 11
#define l_b_height 19
static unsigned char l_b_bits[] = {
   0x00, 0x00, 0x00, 0x00, 0x00, 0x00, 0x00, 0x00, 0x06, 0x00, 0x06, 0x00,
   0x06, 0x00, 0x06, 0x00, 0x06, 0x00, 0xfe, 0x00, 0x86, 0x01, 0x86, 0x01,
   0x86, 0x01, 0x86, 0x01, 0xfe, 0x00, 0x00, 0x00, 0x00, 0x00, 0x00, 0x00,
   0x00, 0x00};
