#define l_e_width 11
#define l_e_height 19
static unsigned char l_e_bits[] = {
   0x00, 0x00, 0x00, 0x00, 0x00, 0x00, 0x00, 0x00, 0x00, 0x00, 0x00, 0x00,
   0x00, 0x00, 0x00, 0x00, 0xfc, 0x00, 0x86, 0x01, 0x86, 0x01, 0xfe, 0x00,
   0x06, 0x00, 0x06, 0x00, 0xfc, 0x01, 0x00, 0x00, 0x00, 0x00, 0x00, 0x00,
   0x00, 0x00};
