#define l_r_width 11
#define l_r_height 19
static unsigned char l_r_bits[] = {
   0x00, 0x00, 0x00, 0x00, 0x00, 0x00, 0x00, 0x00, 0x00, 0x00, 0x00, 0x00,
   0x00, 0x00, 0xf8, 0x00, 0xfc, 0x01, 0x0c, 0x01, 0x0c, 0x00, 0x0c, 0x00,
   0x0c, 0x00, 0x0c, 0x00, 0x0c, 0x00, 0x00, 0x00, 0x00, 0x00, 0x00, 0x00,
   0x00, 0x00};
