#define leftquote_width 11
#define leftquote_height 19
static unsigned char leftquote_bits[] = {
   0x00, 0x00, 0x00, 0x00, 0x1c, 0x00, 0x18, 0x00, 0x18, 0x00, 0x38, 0x00,
   0x30, 0x00, 0x00, 0x00, 0x00, 0x00, 0x00, 0x00, 0x00, 0x00, 0x00, 0x00,
   0x00, 0x00, 0x00, 0x00, 0x00, 0x00, 0x00, 0x00, 0x00, 0x00, 0x00, 0x00,
   0x00, 0x00};
