#define leftparen_width 11
#define leftparen_height 19
static unsigned char leftparen_bits[] = {
   0x00, 0x00, 0xe0, 0x00, 0xf0, 0x00, 0x18, 0x00, 0x0c, 0x00, 0x0c, 0x00,
   0x06, 0x00, 0x06, 0x00, 0x06, 0x00, 0x06, 0x00, 0x06, 0x00, 0x06, 0x00,
   0x06, 0x00, 0x0c, 0x00, 0x0c, 0x00, 0x18, 0x00, 0xf0, 0x00, 0xe0, 0x00,
   0x00, 0x00};
