#define rightparen_width 11
#define rightparen_height 19
static unsigned char rightparen_bits[] = {
   0x00, 0x00, 0x00, 0x00, 0x38, 0x00, 0x78, 0x00, 0xc0, 0x00, 0x80, 0x01,
   0x00, 0x03, 0x00, 0x03, 0x00, 0x03, 0x00, 0x03, 0x00, 0x03, 0x00, 0x03,
   0x00, 0x03, 0x00, 0x03, 0x00, 0x03, 0x80, 0x01, 0xc0, 0x00, 0x78, 0x00,
   0x38, 0x00};
