#define rightquote_width 11
#define rightquote_height 19
static unsigned char rightquote_bits[] = {
   0x00, 0x00, 0x00, 0x00, 0xe0, 0x00, 0x60, 0x00, 0x70, 0x00, 0x30, 0x00,
   0x30, 0x00, 0x00, 0x00, 0x00, 0x00, 0x00, 0x00, 0x00, 0x00, 0x00, 0x00,
   0x00, 0x00, 0x00, 0x00, 0x00, 0x00, 0x00, 0x00, 0x00, 0x00, 0x00, 0x00,
   0x00, 0x00};
