#define B_width 11
#define B_height 19
static unsigned char B_bits[] = {
   0x00, 0x00, 0x00, 0x00, 0xfe, 0x00, 0xc6, 0x01, 0x86, 0x01, 0x86, 0x01,
   0x86, 0x01, 0xc6, 0x01, 0xfe, 0x00, 0xc6, 0x01, 0x86, 0x01, 0x86, 0x01,
   0x86, 0x01, 0xc6, 0x01, 0xfe, 0x00, 0x00, 0x00, 0x00, 0x00, 0x00, 0x00,
   0x00, 0x00};
