#define N_width 11
#define N_height 19
static unsigned char N_bits[] = {
   0x00, 0x00, 0x00, 0x00, 0x86, 0x01, 0x8e, 0x01, 0x8e, 0x01, 0x9e, 0x01,
   0x9e, 0x01, 0xb6, 0x01, 0xb6, 0x01, 0xb6, 0x01, 0xe6, 0x01, 0xe6, 0x01,
   0xc6, 0x01, 0xc6, 0x01, 0x86, 0x01, 0x00, 0x00, 0x00, 0x00, 0x00, 0x00,
   0x00, 0x00};
