#define Q_width 11
#define Q_height 19
static unsigned char Q_bits[] = {
   0x00, 0x00, 0x00, 0x00, 0x78, 0x00, 0xcc, 0x00, 0x86, 0x01, 0x86, 0x01,
   0x86, 0x01, 0x86, 0x01, 0x86, 0x01, 0x86, 0x01, 0x96, 0x01, 0xf6, 0x01,
   0xe6, 0x00, 0xcc, 0x01, 0x78, 0x01, 0x00, 0x00, 0x00, 0x00, 0x00, 0x00,
   0x00, 0x00};
