#define U_width 11
#define U_height 19
static unsigned char U_bits[] = {
   0x00, 0x00, 0x00, 0x00, 0x86, 0x01, 0x86, 0x01, 0x86, 0x01, 0x86, 0x01,
   0x86, 0x01, 0x86, 0x01, 0x86, 0x01, 0x86, 0x01, 0x86, 0x01, 0x86, 0x01,
   0x86, 0x01, 0xcc, 0x00, 0xfc, 0x00, 0x00, 0x00, 0x00, 0x00, 0x00, 0x00,
   0x00, 0x00};
