#define crosshair.bm_width 11
#define crosshair.bm_height 19
static unsigned char crosshair.bm_bits[] = {
   0x00, 0x00, 0x00, 0x00, 0x00, 0x00, 0x00, 0x00, 0x70, 0x00, 0xf8, 0x00,
   0xac, 0x01, 0x26, 0x03, 0x23, 0x06, 0xff, 0x07, 0x23, 0x06, 0x26, 0x03,
   0xac, 0x01, 0xf8, 0x00, 0x70, 0x00, 0x00, 0x00, 0x00, 0x00, 0x00, 0x00,
   0x00, 0x00};
