#define leftcbracket_width 11
#define leftcbracket_height 19
static unsigned char leftcbracket_bits[] = {
   0xff, 0x07, 0xff, 0x07, 0x03, 0x00, 0x03, 0x00, 0x03, 0x00, 0x03, 0x00,
   0x03, 0x00, 0x03, 0x00, 0x03, 0x00, 0x03, 0x00, 0x03, 0x00, 0x03, 0x00,
   0x03, 0x00, 0x03, 0x00, 0x03, 0x00, 0x03, 0x00, 0x03, 0x00, 0xff, 0x07,
   0xff, 0x07};
