#define littleua_width 11
#define littleua_height 19
static unsigned char littleua_bits[] = {
   0x01, 0x04, 0x01, 0x04, 0x01, 0x04, 0x71, 0x04, 0xf9, 0x04, 0x89, 0x04,
   0x89, 0x04, 0x89, 0x04, 0x89, 0x04, 0xf9, 0x04, 0xf9, 0x04, 0x89, 0x04,
   0x89, 0x04, 0x89, 0x04, 0x89, 0x04, 0x89, 0x04, 0x01, 0x04, 0xff, 0x07,
   0xff, 0x07};
