#define mprlrightcorner.bm_width 11
#define mprlrightcorner.bm_height 19
static unsigned char mprlrightcorner.bm_bits[] = {
   0x00, 0x06, 0x00, 0x06, 0x00, 0x06, 0x00, 0x06, 0x00, 0x06, 0x00, 0x06,
   0x00, 0x06, 0x00, 0x06, 0x00, 0x06, 0xff, 0x07, 0xff, 0x07, 0x00, 0x00,
   0x00, 0x00, 0x00, 0x00, 0x00, 0x00, 0x00, 0x00, 0x00, 0x00, 0x00, 0x00,
   0x00, 0x00};
