#define rightarrow_width 11
#define rightarrow_height 19
static unsigned char rightarrow_bits[] = {
   0x00, 0x00, 0x00, 0x00, 0x00, 0x00, 0x00, 0x00, 0x00, 0x00, 0x00, 0x00,
   0xc0, 0x00, 0x80, 0x01, 0x00, 0x03, 0xff, 0x07, 0xff, 0x07, 0x00, 0x03,
   0x80, 0x01, 0xc0, 0x00, 0x00, 0x00, 0x00, 0x00, 0x00, 0x00, 0x00, 0x00,
   0x00, 0x00};
