#define uparrow_width 11
#define uparrow_height 19
static unsigned char uparrow_bits[] = {
   0x00, 0x00, 0x00, 0x00, 0x30, 0x00, 0x78, 0x00, 0xfc, 0x00, 0xfc, 0x00,
   0xb6, 0x01, 0x33, 0x03, 0x31, 0x02, 0x30, 0x00, 0x30, 0x00, 0x30, 0x00,
   0x30, 0x00, 0x30, 0x00, 0x30, 0x00, 0x30, 0x00, 0x30, 0x00, 0x30, 0x00,
   0x30, 0x00};
