#define window_width 11
#define window_height 19
static unsigned char window_bits[] = {
   0x00, 0x00, 0x00, 0x00, 0xfe, 0x03, 0x22, 0x02, 0x22, 0x02, 0x22, 0x02,
   0x22, 0x02, 0x22, 0x02, 0xfe, 0x03, 0x22, 0x02, 0x22, 0x02, 0x22, 0x02,
   0x22, 0x02, 0x22, 0x02, 0xfe, 0x03, 0x00, 0x00, 0x00, 0x00, 0x00, 0x00,
   0x00, 0x00};
