#define 4_width 11
#define 4_height 19
static unsigned char 4_bits[] = {
   0x00, 0x00, 0x00, 0x00, 0x60, 0x00, 0x70, 0x00, 0x78, 0x00, 0x78, 0x00,
   0x6c, 0x00, 0x66, 0x00, 0xfe, 0x01, 0x60, 0x00, 0x60, 0x00, 0x60, 0x00,
   0x60, 0x00, 0x60, 0x00, 0x60, 0x00, 0x00, 0x00, 0x00, 0x00, 0xff, 0x07,
   0x00, 0x00};
