#define 7_width 11
#define 7_height 19
static unsigned char 7_bits[] = {
   0x00, 0x00, 0x00, 0x00, 0xfe, 0x01, 0x80, 0x01, 0x80, 0x01, 0x80, 0x01,
   0x80, 0x01, 0xc0, 0x00, 0x60, 0x00, 0x30, 0x00, 0x18, 0x00, 0x18, 0x00,
   0x18, 0x00, 0x18, 0x00, 0x18, 0x00, 0x00, 0x00, 0x00, 0x00, 0xff, 0x07,
   0x00, 0x00};
