#define dollarsign_width 11
#define dollarsign_height 19
static unsigned char dollarsign_bits[] = {
   0x00, 0x00, 0x00, 0x00, 0x30, 0x00, 0xfc, 0x00, 0xfe, 0x01, 0xb6, 0x01,
   0x36, 0x00, 0x3e, 0x00, 0xfc, 0x00, 0xf0, 0x01, 0xb0, 0x01, 0xb0, 0x01,
   0xfe, 0x00, 0x7c, 0x00, 0x30, 0x00, 0x00, 0x00, 0x00, 0x00, 0xff, 0x07,
   0x00, 0x00};
