#define doublequote_width 11
#define doublequote_height 19
static unsigned char doublequote_bits[] = {
   0x00, 0x00, 0x00, 0x00, 0x00, 0x00, 0xd8, 0x00, 0xd8, 0x00, 0xd8, 0x00,
   0xd8, 0x00, 0xd8, 0x00, 0x00, 0x00, 0x00, 0x00, 0x00, 0x00, 0x00, 0x00,
   0x00, 0x00, 0x00, 0x00, 0x00, 0x00, 0x00, 0x00, 0x00, 0x00, 0xff, 0x07,
   0x00, 0x00};
