#define l_f_width 11
#define l_f_height 19
static unsigned char l_f_bits[] = {
   0x00, 0x00, 0x00, 0x00, 0x00, 0x00, 0x00, 0x00, 0xf0, 0x00, 0x98, 0x01,
   0x18, 0x00, 0x18, 0x00, 0x18, 0x00, 0x7e, 0x00, 0x18, 0x00, 0x18, 0x00,
   0x18, 0x00, 0x18, 0x00, 0x18, 0x00, 0x00, 0x00, 0x00, 0x00, 0xff, 0x07,
   0x00, 0x00};
