#define l_q_width 11
#define l_q_height 19
static unsigned char l_q_bits[] = {
   0x00, 0x00, 0x00, 0x00, 0x00, 0x00, 0x00, 0x00, 0x00, 0x00, 0x00, 0x00,
   0x00, 0x00, 0xfc, 0x01, 0x86, 0x01, 0x86, 0x01, 0x86, 0x01, 0xfc, 0x01,
   0x80, 0x01, 0x80, 0x01, 0x80, 0x01, 0x80, 0x03, 0x00, 0x00, 0xff, 0x07,
   0x00, 0x00};
