#define l_s_width 11
#define l_s_height 19
static unsigned char l_s_bits[] = {
   0x00, 0x00, 0x00, 0x00, 0x00, 0x00, 0x00, 0x00, 0x00, 0x00, 0x00, 0x00,
   0x00, 0x00, 0x00, 0x00, 0xfc, 0x00, 0x06, 0x01, 0x06, 0x00, 0xfc, 0x00,
   0x80, 0x01, 0x82, 0x01, 0xfc, 0x00, 0x00, 0x00, 0x00, 0x00, 0xff, 0x07,
   0x00, 0x00};
