#define l_v_width 11
#define l_v_height 19
static unsigned char l_v_bits[] = {
   0x00, 0x00, 0x00, 0x00, 0x00, 0x00, 0x00, 0x00, 0x00, 0x00, 0x00, 0x00,
   0x00, 0x00, 0x00, 0x00, 0x86, 0x01, 0x86, 0x01, 0xcc, 0x00, 0xcc, 0x00,
   0x78, 0x00, 0x78, 0x00, 0x30, 0x00, 0x00, 0x00, 0x00, 0x00, 0xff, 0x07,
   0x00, 0x00};
