#define l_y_width 11
#define l_y_height 19
static unsigned char l_y_bits[] = {
   0x00, 0x00, 0x00, 0x00, 0x00, 0x00, 0x00, 0x00, 0x00, 0x00, 0x00, 0x00,
   0x00, 0x00, 0x86, 0x01, 0xcc, 0x00, 0xcc, 0x00, 0x78, 0x00, 0x30, 0x00,
   0x18, 0x00, 0x0c, 0x00, 0x0c, 0x00, 0x06, 0x00, 0x00, 0x00, 0xff, 0x07,
   0x00, 0x00};
