#define leftcaret_width 11
#define leftcaret_height 19
static unsigned char leftcaret_bits[] = {
   0x00, 0x00, 0x60, 0x00, 0x30, 0x00, 0x30, 0x00, 0x18, 0x00, 0x0c, 0x00,
   0x06, 0x00, 0x07, 0x00, 0x06, 0x00, 0x0c, 0x00, 0x18, 0x00, 0x30, 0x00,
   0x30, 0x00, 0x60, 0x00, 0x00, 0x00, 0x00, 0x00, 0x00, 0x00, 0xff, 0x07,
   0x00, 0x00};
