#define questionmark_width 11
#define questionmark_height 19
static unsigned char questionmark_bits[] = {
   0x00, 0x00, 0x00, 0x00, 0xfc, 0x00, 0x86, 0x01, 0x86, 0x01, 0x86, 0x01,
   0x80, 0x01, 0xc0, 0x00, 0x60, 0x00, 0x30, 0x00, 0x30, 0x00, 0x00, 0x00,
   0x00, 0x00, 0x30, 0x00, 0x30, 0x00, 0x00, 0x00, 0x00, 0x00, 0xff, 0x07,
   0x00, 0x00};
