#define rightcurly_width 11
#define rightcurly_height 19
static unsigned char rightcurly_bits[] = {
   0x00, 0x00, 0x00, 0x00, 0x1e, 0x00, 0x30, 0x00, 0x30, 0x00, 0x30, 0x00,
   0x30, 0x00, 0x70, 0x00, 0xe0, 0x01, 0x70, 0x00, 0x30, 0x00, 0x30, 0x00,
   0x30, 0x00, 0x30, 0x00, 0x1e, 0x00, 0x00, 0x00, 0x00, 0x00, 0xff, 0x07,
   0x00, 0x00};
