#define D_width 11
#define D_height 19
static unsigned char D_bits[] = {
   0x00, 0x00, 0x00, 0x00, 0x7e, 0x00, 0xe6, 0x00, 0xc6, 0x01, 0x86, 0x01,
   0x86, 0x01, 0x86, 0x01, 0x86, 0x01, 0x86, 0x01, 0x86, 0x01, 0x86, 0x01,
   0xc6, 0x01, 0xe6, 0x00, 0x7e, 0x00, 0x00, 0x00, 0x00, 0x00, 0xff, 0x07,
   0x00, 0x00};
