#define P_width 11
#define P_height 19
static unsigned char P_bits[] = {
   0x00, 0x00, 0x00, 0x00, 0xfe, 0x00, 0xc6, 0x01, 0x86, 0x01, 0x86, 0x01,
   0x86, 0x01, 0x86, 0x01, 0xc6, 0x01, 0xfe, 0x00, 0x06, 0x00, 0x06, 0x00,
   0x06, 0x00, 0x06, 0x00, 0x06, 0x00, 0x00, 0x00, 0x00, 0x00, 0xff, 0x07,
   0x00, 0x00};
