#define b1bomber_width 11
#define b1bomber_height 19
static unsigned char b1bomber_bits[] = {
   0x30, 0x00, 0x30, 0x00, 0x30, 0x00, 0x30, 0x00, 0x78, 0x00, 0xfc, 0x00,
   0xfc, 0x00, 0xfe, 0x01, 0xfe, 0x01, 0xb6, 0x01, 0xb7, 0x03, 0x33, 0x03,
   0x33, 0x03, 0x78, 0x00, 0x78, 0x00, 0xfc, 0x00, 0xcc, 0x00, 0x00, 0x00,
   0x00, 0x00};
