#define lowerleftmiddle_width 11
#define lowerleftmiddle_height 19
static unsigned char lowerleftmiddle_bits[] = {
   0x01, 0x00, 0x01, 0x00, 0x01, 0x00, 0x01, 0x00, 0x01, 0x00, 0x01, 0x00,
   0x01, 0x00, 0x01, 0x00, 0x01, 0x00, 0x01, 0x00, 0xff, 0x07, 0x00, 0x00,
   0x00, 0x00, 0x00, 0x00, 0x00, 0x00, 0x00, 0x00, 0x00, 0x00, 0x00, 0x00,
   0x00, 0x00};
